# xmcd
#
# Track frame offsets:
#	150
#	21880
#	34727
#	48438
#	60399
#	76308
#	91984
#	102084
#	116451
#	131776
#	146220
#	172056
#	185536
#	196216
#	208013
#	217067
#	226950
#	236084
#	249476
#	260761
#	272242
#	290435
#	301372
#	319861
#	333086
#	346793
#
# Disc length: 4769
#
# Revision: 1
# Processed by: cddbd v1.5.1PL0 Copyright (c) Steve Scherf et al.
# Submitted via: ExactAudioCopy v0.90b2
# Normalized: r0:TDELIM( - )
#
DISCID=86129f1a
DTITLE=Various Artist - Twangy
DYEAR=2002
DGENRE=Country
TTITLE0=Freakwater - A Song You Could Cry For
TTITLE1=Gram Parsons and ISB - Blue Eyes
TTITLE2=Flying Burrito Brothers - Devil In Disguise
TTITLE3=Handsome Family - Don't Be Scared
TTITLE4=The Byrds - Hickory Wind
TTITLE5=Hazel and Alice - TB Blues
TTITLE6=Freakwater - Great Potential
TTITLE7=Hazel and Alice - The One I Love Is Gone
TTITLE8=Meat Purveyors - Museum of Love
TTITLE9=The Byrds - Pretty Boy Floyd
TTITLE10=Rolling Stones - Wild Horses
TTITLE11=PeeWee King - Tennessee Waltz
TTITLE12=Meat Purveyors - Little White Pills
TTITLE13=Flying Burrito Brothers - My Uncle
TTITLE14=Freakwater - Selfishness In Man
TTITLE15=Freakwater - Fill My Thermos
TTITLE16=The Byrds - Buckaroo
TTITLE17=Gram Parsons and ISB - Luxury Liner
TTITLE18=The Byrds - Nashville West
TTITLE19=Meat Purveyors - I'll Be There
TTITLE20=Commander Cody - Kentucky Hills of Tennessee
TTITLE21=Commander Cody - Lookin' At The World Through A Windshield
TTITLE22=Rolling Stones - Dead Flowers
TTITLE23=Jo and Rose Lee Maphis - Dim Lights, Thick Smoke
TTITLE24=New Riders of The Purple Sage - Glendale Train
TTITLE25=Charlie Walker - Pick Me Up On Your Way Down
EXTD=
EXTT0=
EXTT1=
EXTT2=
EXTT3=
EXTT4=
EXTT5=
EXTT6=
EXTT7=
EXTT8=
EXTT9=
EXTT10=
EXTT11=
EXTT12=
EXTT13=
EXTT14=
EXTT15=
EXTT16=
EXTT17=
EXTT18=
EXTT19=
EXTT20=
EXTT21=
EXTT22=
EXTT23=
EXTT24=
EXTT25=
PLAYORDER=
